# xmcd
#
# Track frame offsets:
#	183
#	25983
#	52908
#	67983
#
# Disc length: 1144 seconds
#
# Revision: 1
# Processed by: cddbd v1.5.2PL0 Copyright (c) Steve Scherf et al.
# Submitted via: EZCDAudioConverter 4.0.2.1
#
DISCID=2a047604
DTITLE=Yarinistan - Sieh mich an MAXI CD
DYEAR=1990
DGENRE=Pop,Folk
TTITLE0=Ali-Rap
TTITLE1=Sieh mich an (Remix)
TTITLE2=Şinanay
TTITLE3=Sieh mich an
EXTD=
EXTT0=
EXTT1=
EXTT2=
EXTT3=
PLAYORDER=
